<svg xmlns="http://www.w3.org/2000/svg" xmlns:xlink="http://www.w3.org/1999/xlink" width="1920" height="1080" viewBox="0 0 1920 1080">
  <defs>
    <style>
      .cls-1 {
        clip-path: url(#clip-Web_1920_1);
      }

      .cls-2 {
        fill: #3f3d56;
      }

      .cls-3 {
        fill: #fff;
      }

      .cls-4 {
        fill: #6c63ff;
      }

      .cls-5 {
        fill: #e6e6e6;
      }

      .cls-6 {
        fill: #2eb137;
      }

      .cls-7 {
        fill: #f2f2f2;
      }
    </style>
    <clipPath id="clip-Web_1920_1">
      <rect width="1920" height="1080"/>
    </clipPath>
  </defs>
  <g id="Web_1920_1" data-name="Web 1920 – 1" class="cls-1">
    <rect class="cls-3" width="1920" height="1080"/>
    <g id="Group_1" data-name="Group 1" transform="translate(677.369 184)">
      <path id="Path_968" data-name="Path 968" class="cls-2" d="M853.606,262.605h-3.9V155.628a61.915,61.915,0,0,0-61.915-61.915H561.141a61.915,61.915,0,0,0-61.916,61.915V742.511a61.915,61.915,0,0,0,61.915,61.915H787.788A61.915,61.915,0,0,0,849.7,742.511V338.753h3.9Z" transform="translate(-290.378 -93.713)"/>
      <path id="Path_969" data-name="Path 969" class="cls-3" d="M842.164,151.481V746.656c0,25.919-21.343,46.939-47.68,46.952H559.509c-26.354,0-47.714-21.023-47.718-46.959V151.481c.008-25.935,21.37-46.954,47.716-46.951h28.5a22.031,22.031,0,0,0,2.185,20.865,22.782,22.782,0,0,0,18.8,9.875H742.953a22.782,22.782,0,0,0,18.8-9.875,22.032,22.032,0,0,0,2.185-20.865h30.532c26.328,0,47.682,21.009,47.7,46.934Z" transform="translate(-293.536 -93.713)"/>
      <circle id="Ellipse_18" data-name="Ellipse 18" class="cls-4" cx="96.565" cy="96.565" r="96.565" transform="translate(294.581 103.565)"/>
      <path id="Path_39" data-name="Path 39" class="cls-5" d="M779.672,494.309H574.135a3.81,3.81,0,0,1-3.806-3.806V439.52a3.811,3.811,0,0,1,3.806-3.806H779.672a3.811,3.811,0,0,1,3.806,3.806v50.985a3.811,3.811,0,0,1-3.806,3.806ZM574.135,437.235a2.286,2.286,0,0,0-2.284,2.284V490.5a2.286,2.286,0,0,0,2.284,2.284H779.672a2.286,2.286,0,0,0,2.284-2.284V439.519a2.286,2.286,0,0,0-2.284-2.284Z" transform="translate(-285.816 -93.713)"/>
      <path id="Path_40" data-name="Path 40" class="cls-5" d="M637.7,454.074a2.665,2.665,0,0,0,0,5.329H763.3a2.665,2.665,0,0,0,.2-5.326l-.117,0H637.7Z" transform="translate(-287.509 -93.713)"/>
      <path id="Path_41" data-name="Path 41" class="cls-5" d="M637.7,470.058a2.665,2.665,0,0,0,0,5.329H763.3a2.665,2.665,0,0,0,.2-5.326l-.117,0H637.7Z" transform="translate(-287.509 -93.713)"/>
      <path id="Path_42" data-name="Path 42" class="cls-5" d="M779.672,579.289H574.135a3.81,3.81,0,0,1-3.806-3.806V524.5a3.811,3.811,0,0,1,3.806-3.806H779.672a3.811,3.811,0,0,1,3.806,3.806v50.985a3.811,3.811,0,0,1-3.806,3.8ZM574.135,522.215a2.286,2.286,0,0,0-2.284,2.284v50.985a2.286,2.286,0,0,0,2.284,2.284H779.672a2.286,2.286,0,0,0,2.284-2.284V524.5a2.286,2.286,0,0,0-2.284-2.284Z" transform="translate(-285.816 -93.713)"/>
      <path id="Path_43" data-name="Path 43" class="cls-5" d="M637.7,539.33a2.664,2.664,0,0,0,0,5.329H763.3a2.665,2.665,0,0,0,.087-5.328H637.7Z" transform="translate(-287.498 -93.713)"/>
      <path id="Path_44" data-name="Path 44" class="cls-5" d="M637.7,555.318a2.664,2.664,0,0,0,0,5.329H763.3a2.665,2.665,0,1,0,.087-5.329H637.7Z" transform="translate(-287.504 -93.713)"/>
      <path id="Path_39-2" data-name="Path 39-2" class="cls-5" d="M779.672,664.547H574.135a3.81,3.81,0,0,1-3.806-3.806V609.758a3.811,3.811,0,0,1,3.806-3.806H779.672a3.811,3.811,0,0,1,3.806,3.806v50.985a3.811,3.811,0,0,1-3.806,3.806ZM574.135,607.473a2.286,2.286,0,0,0-2.284,2.284v50.985a2.286,2.286,0,0,0,2.284,2.284H779.672a2.286,2.286,0,0,0,2.284-2.284V609.757a2.286,2.286,0,0,0-2.284-2.284Z" transform="translate(-285.816 -93.713)"/>
      <path id="Path_40-2" data-name="Path 40-2" class="cls-5" d="M637.7,624.591a2.664,2.664,0,0,0,0,5.329H763.3a2.665,2.665,0,0,0,.2-5.326l-.117,0H637.7Z" transform="translate(-287.509 -93.713)"/>
      <path id="Path_41-2" data-name="Path 41-2" class="cls-5" d="M637.7,640.578a2.664,2.664,0,0,0,0,5.329H763.3a2.665,2.665,0,0,0,.2-5.326l-.117,0H637.7Z" transform="translate(-287.509 -93.713)"/>
      <path id="Path_970" data-name="Path 970" class="cls-5" d="M881.132,806.286H230.5c-.944,0-1.707-.468-1.707-1.045s.765-1.045,1.707-1.045H881.133c.943,0,1.707.468,1.707,1.045S882.076,806.286,881.132,806.286Z" transform="translate(-228.791 -93.713)"/>
      <g id="Group_58" data-name="Group 58" transform="translate(566.932 620.479)">
        <path id="Path_438" data-name="Path 438" class="cls-6" d="M937.992,765.521a19.474,19.474,0,0,1-18.806-3.313c-6.587-5.528-8.652-14.636-10.332-23.07l-4.97-24.945,10.405,7.165c7.483,5.152,15.134,10.47,20.316,17.933s7.443,17.651,3.28,25.726" transform="translate(-884.092 -714.193)"/>
        <path id="Path_439" data-name="Path 439" class="cls-7" d="M936.385,797.458c1.31-9.542,2.657-19.206,1.738-28.849-.816-8.565-3.429-16.93-8.749-23.789a39.572,39.572,0,0,0-10.153-9.2c-1.015-.641-1.95.968-.939,1.606a37.623,37.623,0,0,1,14.881,17.956c3.24,8.241,3.76,17.224,3.2,25.977-.338,5.294-1.053,10.553-1.774,15.8a.964.964,0,0,0,.65,1.144.936.936,0,0,0,1.144-.65Z" transform="translate(-884.092 -714.193)"/>
        <path id="Path_442" data-name="Path 442" class="cls-6" d="M926.958,782.148a14.336,14.336,0,0,1-12.491,6.447c-6.323-.3-11.595-4.713-16.34-8.9l-14.035-12.4,9.289-.444c6.68-.32,13.533-.618,19.9,1.442s12.231,7.018,13.394,13.6" transform="translate(-884.092 -714.193)"/>
        <path id="Path_443" data-name="Path 443" class="cls-7" d="M940.086,802.943c-6.3-11.156-13.618-23.555-26.685-27.518a29.778,29.778,0,0,0-11.224-1.159c-1.192.1-.894,1.94.3,1.837a27.665,27.665,0,0,1,17.912,4.739c5.051,3.438,8.983,8.217,12.311,13.286,2.039,3.1,3.865,6.341,5.691,9.573C938.971,804.733,940.677,803.988,940.086,802.943Z" transform="translate(-884.092 -714.193)"/>
      </g>
      <g id="Group_59" data-name="Group 59" transform="translate(310.843 354.999)">
        <circle id="Ellipse_5" data-name="Ellipse 5" class="cls-4" cx="15.986" cy="15.986" r="15.986"/>
        <path id="Path_40-3" data-name="Path 40-3" class="cls-5" d="M592.124,461.712c-.184,0-.333,1.193-.333,2.664s.149,2.665.333,2.665h15.719c.184.024.336-1.149.339-2.62a5.943,5.943,0,0,0-.328-2.708h-15.73Z" transform="translate(-583.792 -448.712)"/>
      </g>
      <g id="Group_60" data-name="Group 60" transform="translate(310.843 440.292)">
        <circle id="Ellipse_5-2" data-name="Ellipse 5-2" class="cls-4" cx="15.986" cy="15.986" r="15.986"/>
        <path id="Path_40-4" data-name="Path 40-4" class="cls-5" d="M592.124,547.005c-.184,0-.333,1.193-.333,2.664s.149,2.665.333,2.665h15.719c.184.024.336-1.149.339-2.62a5.943,5.943,0,0,0-.328-2.708h-15.73Z" transform="translate(-583.792 -534.005)"/>
      </g>
      <g id="Group_61" data-name="Group 61" transform="translate(310.843 525.55)">
        <circle id="Ellipse_5-3" data-name="Ellipse 5-3" class="cls-4" cx="15.986" cy="15.986" r="15.986"/>
        <path id="Path_40-5" data-name="Path 40-5" class="cls-5" d="M592.124,632.263c-.184,0-.333,1.193-.333,2.664s.149,2.665.333,2.665h15.719c.184.024.336-1.149.339-2.62a5.944,5.944,0,0,0-.328-2.708h-15.73Z" transform="translate(-583.792 -619.263)"/>
      </g>
      <rect id="Rectangle_1" data-name="Rectangle 1" class="cls-3" width="8" height="67" transform="translate(365.335 179.268) rotate(-45)"/>
      <rect id="Rectangle_2" data-name="Rectangle 2" class="cls-3" width="8" height="67" transform="translate(412.71 173.615) rotate(45)"/>
    </g>
  </g>
</svg>
